<svg width="25" height="20" viewBox="0 0 25 20" fill="none" xmlns="http://www.w3.org/2000/svg">
<path d="M1.41667 12.7498H4.25C5.02917 12.7498 5.66667 12.1123 5.66667 11.3332V8.49984C5.66667 7.72067 5.02917 7.08317 4.25 7.08317H1.41667C0.6375 7.08317 0 7.72067 0 8.49984V11.3332C0 12.1123 0.6375 12.7498 1.41667 12.7498ZM1.41667 19.8332H4.25C5.02917 19.8332 5.66667 19.1957 5.66667 18.4165V15.5832C5.66667 14.804 5.02917 14.1665 4.25 14.1665H1.41667C0.6375 14.1665 0 14.804 0 15.5832V18.4165C0 19.1957 0.6375 19.8332 1.41667 19.8332ZM1.41667 5.6665H4.25C5.02917 5.6665 5.66667 5.029 5.66667 4.24984V1.4165C5.66667 0.637337 5.02917 -0.000163078 4.25 -0.000163078H1.41667C0.6375 -0.000163078 0 0.637337 0 1.4165V4.24984C0 5.029 0.6375 5.6665 1.41667 5.6665ZM8.5 12.7498H22.6667C23.4458 12.7498 24.0833 12.1123 24.0833 11.3332V8.49984C24.0833 7.72067 23.4458 7.08317 22.6667 7.08317H8.5C7.72083 7.08317 7.08333 7.72067 7.08333 8.49984V11.3332C7.08333 12.1123 7.72083 12.7498 8.5 12.7498ZM8.5 19.8332H22.6667C23.4458 19.8332 24.0833 19.1957 24.0833 18.4165V15.5832C24.0833 14.804 23.4458 14.1665 22.6667 14.1665H8.5C7.72083 14.1665 7.08333 14.804 7.08333 15.5832V18.4165C7.08333 19.1957 7.72083 19.8332 8.5 19.8332ZM7.08333 1.4165V4.24984C7.08333 5.029 7.72083 5.6665 8.5 5.6665H22.6667C23.4458 5.6665 24.0833 5.029 24.0833 4.24984V1.4165C24.0833 0.637337 23.4458 -0.000163078 22.6667 -0.000163078H8.5C7.72083 -0.000163078 7.08333 0.637337 7.08333 1.4165Z" fill="#3E9A3E"/>
</svg>
