<svg width="25" height="25" viewBox="0 0 25 25" fill="none" xmlns="http://www.w3.org/2000/svg">
<circle cx="12.5" cy="12.5" r="12.5" fill="#82C482"/>
<path fill-rule="evenodd" clip-rule="evenodd" d="M10.8335 18.75H14.1665C16.5072 18.75 17.678 18.75 18.5187 18.1885C18.8816 17.9465 19.1941 17.634 19.4382 17.2688C20 16.4285 20 15.2575 20 12.917C20 10.5764 20 9.40537 19.4382 8.5651C19.1941 8.19995 18.8816 7.88742 18.5187 7.64538C17.9787 7.28406 17.3022 7.15496 16.2665 7.10913C15.7722 7.10913 15.347 6.73482 15.2502 6.24975C15.1763 5.89445 14.9842 5.57603 14.7064 5.34833C14.4286 5.12063 14.0821 4.9976 13.7255 5.00004H11.2745C10.5335 5.00004 9.89525 5.5233 9.74975 6.24975C9.653 6.73482 9.22775 7.10913 8.7335 7.10913C7.6985 7.15496 7.022 7.28482 6.48125 7.64538C6.11865 7.8875 5.80646 8.20003 5.5625 8.5651C5 9.40537 5 10.5756 5 12.917C5 15.2583 5 16.4278 5.56175 17.2688C5.80475 17.6324 6.11675 17.9449 6.48125 18.1885C7.322 18.75 8.49275 18.75 10.8335 18.75ZM12.5 9.7919C10.7743 9.7919 9.37475 11.1906 9.37475 12.9162C9.37475 14.6418 10.775 16.0428 12.5 16.0428C14.225 16.0428 15.6252 14.6433 15.6252 12.9177C15.6252 11.1921 14.225 9.7919 12.5 9.7919ZM12.5 11.0416C11.465 11.0416 10.625 11.8811 10.625 12.917C10.625 13.952 11.465 14.7915 12.5 14.7915C13.535 14.7915 14.375 13.952 14.375 12.917C14.375 11.8819 13.535 11.0416 12.5 11.0416ZM16.0415 10.4168C16.0415 10.0715 16.3212 9.7919 16.667 9.7919H17.4995C17.8445 9.7919 18.125 10.0715 18.125 10.4168C18.1234 10.584 18.0567 10.7437 17.9396 10.8609C17.8224 10.978 17.6644 11.043 17.5002 11.0416H16.667C16.5856 11.0424 16.5049 11.0269 16.4295 10.9959C16.354 10.965 16.2853 10.9192 16.2272 10.8611C16.1691 10.8031 16.1228 10.734 16.0909 10.6578C16.0591 10.5815 16.0423 10.4996 16.0415 10.4168Z" fill="white"/>
</svg>
