<svg width="24" height="31" viewBox="0 0 24 31" fill="none" xmlns="http://www.w3.org/2000/svg">
<path fill-rule="evenodd" clip-rule="evenodd" d="M11.1197 21.9116C10.3539 21.6013 9.53278 21.4508 8.70672 21.4694C8.41092 21.4658 8.11724 21.419 7.835 21.3304C7.74681 21.3151 7.66376 21.2783 7.59323 21.2232C7.5227 21.1681 7.46688 21.0965 7.43073 21.0146C6.86222 19.587 9.4142 19.3848 10.4375 19.6754C10.4819 19.692 10.5291 19.6996 10.5765 19.6976C10.6238 19.6956 10.6703 19.6841 10.7131 19.6638C10.7559 19.6435 10.7942 19.6148 10.8257 19.5795C10.8572 19.5441 10.8813 19.5028 10.8965 19.4579C10.9118 19.413 10.9178 19.3656 10.9144 19.3183C10.9109 19.2711 10.898 19.225 10.8764 19.1828C10.8548 19.1407 10.825 19.1033 10.7886 19.0729C10.7523 19.0425 10.7102 19.0197 10.6649 19.0058C10.2606 18.8524 9.83375 18.7671 9.40157 18.7532C9.42698 18.6959 9.4481 18.6367 9.46473 18.5763C9.49842 18.4651 9.51948 18.3514 9.5279 18.2352C9.53503 18.1258 9.53503 18.0161 9.5279 17.9067C9.5279 17.6161 9.4142 17.3761 9.3763 17.0982C9.38715 17.006 9.36592 16.9128 9.31619 16.8344C9.26646 16.756 9.19126 16.6971 9.10322 16.6676C9.01518 16.6381 8.91967 16.6398 8.83274 16.6724C8.74581 16.7051 8.67276 16.7666 8.62586 16.8468C8.6002 16.8935 8.58471 16.9452 8.58038 16.9984C8.44984 17.2544 8.34035 17.5197 8.25191 17.7943C8.21401 17.9038 8.18874 18.0175 8.17611 18.1354C8.1706 18.2532 8.1706 18.3713 8.17611 18.4891C8.19379 18.5868 8.21906 18.6837 8.25191 18.7797C7.92428 18.8235 7.60844 18.9119 7.30439 19.045C7.07539 19.1338 6.86658 19.2677 6.69037 19.4388C6.51417 19.6099 6.37417 19.8147 6.27871 20.041C6.18324 20.2673 6.13425 20.5104 6.13466 20.7561C6.13506 21.0017 6.18485 21.2447 6.28107 21.4706C6.35923 21.7321 6.49685 21.972 6.68314 22.1714C6.86944 22.3709 7.09937 22.5245 7.35493 22.6203C8.11294 22.83 8.8937 22.945 9.67951 22.9614C10.1596 22.9614 10.6397 22.9614 10.7281 23.5173C10.8165 24.0732 10.3112 24.4269 9.71741 24.6417C9.02489 24.9072 8.27077 24.9686 7.54443 24.8185C7.32423 24.7553 7.12122 24.643 6.95065 24.4901C6.77962 24.3369 6.61922 24.1723 6.47057 23.9974C6.40356 23.9136 6.30602 23.8599 6.1994 23.848C6.09278 23.8362 5.98583 23.8672 5.90206 23.9342C5.8183 24.0012 5.76458 24.0988 5.75274 24.2054C5.74089 24.312 5.77188 24.4189 5.8389 24.5027C6.04609 24.8009 6.28612 25.0704 6.55901 25.3113C6.76843 25.4778 7.00297 25.61 7.25386 25.7029C7.48716 25.7888 7.72719 25.8478 7.97397 25.8798V25.9682C7.96134 26.0811 7.96134 26.1948 7.97397 26.3093C7.95968 26.4183 7.95968 26.5288 7.97397 26.6378C7.97397 26.9284 8.07504 27.1684 8.12557 27.4463C8.11136 27.5019 8.10911 27.5598 8.11899 27.6163C8.12886 27.6727 8.15063 27.7264 8.18285 27.7739C8.21507 27.8213 8.25701 27.8613 8.30588 27.8912C8.35474 27.9212 8.40942 27.9404 8.46629 27.9477C8.52315 27.9549 8.58091 27.9499 8.63571 27.9331C8.69052 27.9163 8.74112 27.8881 8.78417 27.8502C8.82722 27.8124 8.86173 27.7658 8.8854 27.7136C8.90908 27.6614 8.92138 27.6047 8.92149 27.5474C9.04783 27.2888 9.15311 27.0235 9.23733 26.7515C9.27523 26.6395 9.3005 26.5258 9.31313 26.4104C9.33159 26.2932 9.33159 26.1738 9.31313 26.0566C9.31904 25.9978 9.31904 25.9386 9.31313 25.8798C9.80795 25.8412 10.2938 25.7261 10.7534 25.5387C11.1841 25.3514 11.5405 25.0266 11.7668 24.6151C11.9931 24.2036 12.0766 23.7286 12.0041 23.2646C11.9767 22.9847 11.8819 22.7155 11.7279 22.4801C11.5739 22.2447 11.3653 22.0488 11.1197 21.9116ZM12.3831 12.9164C11.9536 13.4471 13.1664 13.8387 13.5075 13.3965C13.671 13.1881 13.7874 12.9468 13.8486 12.689C13.8486 12.3606 13.3053 12.1963 12.8632 12.4743C12.8253 12.5374 12.4715 12.8154 12.3831 12.9164Z" fill="#7B7B7B"/>
<path fill-rule="evenodd" clip-rule="evenodd" d="M23.2606 8.39255C23.1663 8.34142 23.0558 8.32864 22.9523 8.35688C22.8487 8.38512 22.7601 8.4522 22.7047 8.54416C22.5362 8.849 22.3029 9.11327 22.0214 9.31842C21.7398 9.52357 21.4168 9.66463 21.075 9.73171C20.9116 9.75698 20.7474 9.75698 20.5823 9.73171C19.7476 9.56748 18.9054 9.47062 18.0556 9.44114C17.1207 9.54221 15.5289 10.5403 14.1771 10.7803C13.8732 10.8945 13.537 10.8873 13.2383 10.7603C12.9396 10.6333 12.7012 10.3962 12.5726 10.0981C12.3705 9.69381 12.7495 9.50431 13.1285 9.26427C14.1806 8.76733 15.115 8.05248 15.87 7.1671C16.0309 6.90432 16.1284 6.60766 16.1547 6.30065C16.181 5.99364 16.1354 5.68472 16.0216 5.39839C15.491 3.88236 14.5561 3.46546 13.6086 3.61706C13.086 3.69234 12.5873 3.88488 12.1497 4.18024C11.7121 4.4756 11.3471 4.86613 11.0818 5.32259C10.9176 5.63843 11.3598 6.00481 11.7261 5.7395C12.0983 5.21977 12.6457 4.8519 13.2674 4.70355C13.9749 4.42561 14.6698 4.70355 14.973 5.75213C15.1751 6.47225 14.6445 6.86389 14.0634 7.21763C13.4822 7.57137 11.8019 8.60732 11.6756 8.73366C11.405 8.98557 11.2305 9.32383 11.1821 9.69037C11.1337 10.0569 11.2144 10.4289 11.4103 10.7424C12.6105 13.0164 14.7329 12.1321 16.1732 11.4499C16.8312 11.086 17.5203 10.7816 18.2324 10.5403C19.025 10.5369 19.8125 10.5959 20.5949 10.7171C20.8425 10.7239 21.0868 10.6986 21.3277 10.6413C21.7889 10.523 22.2196 10.3077 22.591 10.0097C22.9163 9.70815 23.1821 9.34815 23.3743 8.94843C23.429 8.85853 23.4477 8.75127 23.4266 8.64817C23.4055 8.54507 23.3462 8.45375 23.2606 8.39255Z" fill="#7B7B7B"/>
<path fill-rule="evenodd" clip-rule="evenodd" d="M12.2947 7.11698C10.2606 4.66606 6.96328 5.85362 6.77378 5.85362C5.84941 6.23132 5.08552 6.91928 4.61344 7.79919C3.35008 9.84583 3.26164 12.4357 5.69993 13.7243C6.0284 13.8633 7.08962 13.4464 6.45794 13.08C4.71451 12.2588 4.62607 10.1617 5.68729 8.51931C6.2364 7.69391 7.0672 7.09663 8.02451 6.83904C9.01082 6.59047 10.0532 6.69784 10.9681 7.14225C11.2082 7.26858 11.4267 7.43535 11.6124 7.63496C12.0041 8.0645 12.6737 7.57179 12.2947 7.11698ZM23.7786 4.88083L20.6202 3.18793C19.7106 2.63206 18.8515 1.81087 17.9292 1.16656C17.2594 0.658346 16.4949 0.288965 15.6805 0.0800725C14.9625 -0.0590729 14.221 -0.0163714 13.5238 0.204288C12.8265 0.424947 12.1955 0.81655 11.6882 1.34343C11.0364 2.02312 10.4384 2.74744 9.89428 3.51641C9.58096 3.95943 9.30724 4.42687 9.07309 4.91874C9.19943 5.19667 9.43947 5.27248 9.78057 5.13351C10.0206 4.75618 10.2859 4.39823 10.5765 4.05965C11.145 3.39765 11.764 2.78703 12.4336 2.22778C12.8186 1.85818 13.2878 1.58794 13.8007 1.44045C14.3136 1.29297 14.8547 1.27268 15.3773 1.38133C16.1995 1.62761 16.9701 2.02145 17.6513 2.54362C18.4312 3.10624 19.2398 3.62421 20.0769 4.09755L23.4375 5.58832C23.4846 5.61165 23.5359 5.62526 23.5884 5.62832C23.6409 5.63139 23.6935 5.62386 23.743 5.60618C23.7925 5.58849 23.838 5.56102 23.8766 5.52539C23.9153 5.48976 23.9464 5.44672 23.9681 5.39881C24.008 5.30452 24.0106 5.19862 23.9754 5.10249C23.9402 5.00635 23.8699 4.92714 23.7786 4.88083ZM10.4881 13.737C9.64497 13.7117 8.80274 13.737 7.96134 13.8128C7.65813 13.8128 4.87874 14.2297 4.28497 14.3434C3.6778 14.4239 3.11627 14.7091 2.69313 15.1519C2.491 15.493 2.4531 15.9605 3.12268 16.5164C3.18642 16.5724 3.26576 16.6077 3.35008 16.6174C2.92451 17.1295 2.5401 17.6745 2.20042 18.2472C1.79598 18.9519 1.43729 19.682 1.12657 20.4328C0.911798 20.9508 0.709661 21.4814 0.53279 22.0246C0.354236 22.5754 0.211055 23.1355 0.103248 23.7049C0.0245834 24.1212 -0.009299 24.5447 0.0021797 24.9682C0.0110232 25.3965 0.0741912 25.821 0.191684 26.2316C0.288541 26.5264 0.406455 26.8127 0.545424 27.0907C0.684393 27.3703 0.840207 27.6398 1.01287 27.8992C1.6463 28.9301 2.6421 29.6871 3.80489 30.0217C5.42578 30.2743 7.07067 30.3476 8.70672 30.2364C10.5606 30.3948 12.4267 30.3311 14.2655 30.0469C15.1673 29.8772 15.9959 29.4365 16.6406 28.7836C17.0189 28.3663 17.2994 27.87 17.4618 27.3307C17.6778 26.598 17.7764 25.8336 17.7524 25.0693C17.7796 23.6457 17.6311 22.2242 17.3102 20.8371C17.0808 19.8776 16.683 18.9665 16.1353 18.1461C15.924 17.8482 15.6873 17.5692 15.4278 17.3123C15.1766 17.065 14.9108 16.833 14.6319 16.6174C14.5053 16.5272 14.3746 16.4429 14.2402 16.3648L14.4676 16.1626C14.5812 16.0611 14.6715 15.9364 14.7325 15.7969C14.7936 15.6574 14.8239 15.5063 14.8214 15.3541C14.8112 15.1745 14.7591 14.9997 14.6691 14.8439C14.5792 14.6882 14.4539 14.5557 14.3034 14.4571C13.2674 13.6485 12.2315 13.8001 10.4881 13.737ZM13.5706 15.3035C13.5749 15.3413 13.5749 15.3795 13.5706 15.4172C13.4308 15.5385 13.3003 15.6691 13.179 15.8089C13.0674 15.9392 12.9895 16.0948 12.952 16.2622C12.9146 16.4296 12.9188 16.6036 12.9642 16.769C13.0012 16.9012 13.0759 17.0197 13.179 17.1101C13.3306 17.2617 13.7475 17.5018 13.836 17.5776C14.0718 17.7713 14.295 17.9776 14.5055 18.1966C14.7119 18.3996 14.893 18.6228 15.0488 18.8662C15.5007 19.5784 15.8215 20.3656 15.9963 21.1908C16.2704 22.4731 16.3879 23.7845 16.35 25.0946C16.3576 25.6252 16.3033 26.1558 16.1858 26.6738C16.1024 27.1422 15.8927 27.579 15.5794 27.9371C14.9128 28.5145 14.0724 28.8524 13.1916 28.8973C11.6863 29.0148 10.1741 29.0148 8.66882 28.8973C7.13171 29.058 5.58204 29.058 4.04493 28.8973C3.15548 28.6388 2.39147 28.0635 1.89722 27.2802C1.74561 27.0654 1.60665 26.8422 1.48031 26.6106C1.35374 26.391 1.25204 26.1579 1.1771 25.9158C1.06504 25.5899 1.0012 25.2494 0.987599 24.9051C0.950354 24.5523 0.950354 24.1966 0.987599 23.8438C1.07435 23.3099 1.19226 22.7835 1.34134 22.2646C1.49294 21.734 1.66981 21.2161 1.85932 20.7107C2.13191 19.9888 2.45704 19.2879 2.8321 18.6135C3.18874 17.9412 3.61198 17.3063 4.09546 16.7185C4.42393 16.3395 3.89332 16.1626 3.55222 15.8847C3.40061 15.7457 3.31218 15.6573 3.29955 15.5562C3.28691 15.4551 3.41325 15.4804 3.48905 15.4299C3.78441 15.2894 4.09979 15.1956 4.42393 15.1519C5.40935 14.9877 6.42004 14.8487 7.43073 14.7729C8.42191 14.6828 9.41815 14.6617 10.4123 14.7098C11.1147 14.7165 11.8137 14.7628 12.5094 14.8487C12.8973 14.9031 13.2649 15.0597 13.5706 15.3035Z" fill="#7B7B7B"/>
</svg>
