<svg width="31" height="31" viewBox="0 0 31 31" fill="none" xmlns="http://www.w3.org/2000/svg">
<path d="M1.25 15.25C1.25 17.0885 1.61212 18.909 2.31569 20.6076C3.01925 22.3061 4.05048 23.8495 5.3505 25.1495C6.65053 26.4495 8.19387 27.4807 9.89243 28.1843C11.591 28.8879 13.4115 29.25 15.25 29.25C17.0885 29.25 18.909 28.8879 20.6076 28.1843C22.3061 27.4807 23.8495 26.4495 25.1495 25.1495C26.4495 23.8495 27.4807 22.3061 28.1843 20.6076C28.8879 18.909 29.25 17.0885 29.25 15.25C29.25 13.4115 28.8879 11.591 28.1843 9.89243C27.4807 8.19387 26.4495 6.65053 25.1495 5.35051C23.8495 4.05048 22.3061 3.01925 20.6076 2.31569C18.909 1.61212 17.0885 1.25 15.25 1.25C13.4115 1.25 11.591 1.61212 9.89243 2.31569C8.19387 3.01925 6.65053 4.05048 5.3505 5.35051C4.05048 6.65053 3.01925 8.19387 2.31569 9.89243C1.61212 11.591 1.25 13.4115 1.25 15.25Z" stroke="#7B7B7B" stroke-width="2.5" stroke-linecap="round" stroke-linejoin="round"/>
<path d="M19.6056 10.5838C19.3238 10.095 18.9143 9.69197 18.4211 9.41796C17.9279 9.14395 17.3695 9.00923 16.8056 9.02821H13.6944C12.8693 9.02821 12.078 9.35599 11.4946 9.93944C10.9111 10.5229 10.5833 11.3142 10.5833 12.1393C10.5833 12.9644 10.9111 13.7558 11.4946 14.3392C12.078 14.9227 12.8693 15.2504 13.6944 15.2504H16.8056C17.6307 15.2504 18.422 15.5782 19.0054 16.1617C19.5889 16.7451 19.9167 17.5364 19.9167 18.3615C19.9167 19.1867 19.5889 19.978 19.0054 20.5614C18.422 21.1449 17.6307 21.4727 16.8056 21.4727H13.6944C13.1305 21.4916 12.5721 21.3569 12.0789 21.0829C11.5857 20.8089 11.1762 20.4059 10.8944 19.9171M15.25 7.47266V23.0282" stroke="#7B7B7B" stroke-width="2.5" stroke-linecap="round" stroke-linejoin="round"/>
</svg>
