<svg width="28" height="28" viewBox="0 0 28 28" fill="none" xmlns="http://www.w3.org/2000/svg">
<path d="M28 0H0V8.8421H1.4V25.0526C1.4 25.8343 1.695 26.584 2.2201 27.1367C2.7452 27.6895 3.45739 28 4.2 28H23.8C24.5426 28 25.2548 27.6895 25.7799 27.1367C26.305 26.584 26.6 25.8343 26.6 25.0526V8.8421H28V0ZM2.8 2.94737H25.2V5.89474H2.8V2.94737ZM23.8 25.0526H4.2V8.8421H23.8V25.0526ZM9.8 11.7895H18.2C18.2 12.5712 17.905 13.3208 17.3799 13.8736C16.8548 14.4263 16.1426 14.7368 15.4 14.7368H12.6C11.8574 14.7368 11.1452 14.4263 10.6201 13.8736C10.095 13.3208 9.8 12.5712 9.8 11.7895Z" fill="#7B7B7B"/>
</svg>
