<svg width="20" height="20" viewBox="0 0 20 20" fill="none" xmlns="http://www.w3.org/2000/svg">
<path d="M7 10C7 11.66 8.34 13 10 13C11.66 13 13 11.66 13 10C13 8.34 11.66 7 10 7C8.34 7 7 8.34 7 10Z" fill="#F6F6F6"/>
<path d="M6 7C6 6.45 5.55 6 5 6H3.09C4.47 3.61 7.05 2 10 2C13.49 2 16.45 4.24 17.54 7.36C17.68 7.75 18.07 8 18.48 8C19.16 8 19.66 7.33 19.44 6.69C18.07 2.79 14.36 0 10 0C6.73 0 3.82 1.58 2 4.01V3C2 2.45 1.55 2 1 2C0.45 2 0 2.45 0 3V7C0 7.55 0.45 8 1 8H5C5.55 8 6 7.55 6 7Z" fill="#F6F6F6"/>
<path d="M14 13C14 13.55 14.45 14 15 14H16.91C15.53 16.39 12.95 18 10 18C6.51 18 3.55 15.76 2.46 12.64C2.32 12.25 1.93 12 1.52 12C0.84 12 0.34 12.67 0.56 13.31C1.93 17.21 5.64 20 10 20C13.27 20 16.18 18.42 18 15.99V17C18 17.55 18.45 18 19 18C19.55 18 20 17.55 20 17V13C20 12.45 19.55 12 19 12H15C14.45 12 14 12.45 14 13Z" fill="#F6F6F6"/>
</svg>
