<svg width="28" height="27" viewBox="0 0 28 27" fill="none" xmlns="http://www.w3.org/2000/svg">
<path d="M19.9772 13.5C23.6491 13.5 26.6292 10.476 26.6292 6.75C26.6292 3.024 23.6491 0 19.9772 0C16.3053 0 13.3253 3.024 13.3253 6.75C13.3253 10.476 16.3053 13.5 19.9772 13.5ZM27.2279 21.06C26.709 20.52 26.0571 20.25 25.2988 20.25H15.986L13.2188 19.2645L13.6578 17.9955L15.986 18.9H19.7112C20.1768 18.9 20.5493 18.711 20.8553 18.4005C21.1613 18.09 21.3076 17.712 21.3076 17.2935C21.3076 16.5645 20.9617 16.065 20.2699 15.7815L10.5979 12.15H8.00366V24.3L17.3164 27L27.9995 22.95C28.0128 22.2345 27.7467 21.6 27.2279 21.06ZM5.34287 12.15H0V27H5.34287V12.15Z" fill="#7B7B7B"/>
</svg>
