<svg width="16" height="16" viewBox="0 0 16 16" fill="none" xmlns="http://www.w3.org/2000/svg">
<path d="M15.1662 13.8563L11.6746 10.3646C12.5152 9.24556 12.969 7.8834 12.9675 6.48375C12.9675 2.90863 10.0589 0 6.48375 0C2.90863 0 0 2.90863 0 6.48375C0 10.0589 2.90863 12.9675 6.48375 12.9675C7.8834 12.969 9.24556 12.5152 10.3646 11.6746L13.8563 15.1662C14.033 15.3242 14.2635 15.4086 14.5005 15.4019C14.7375 15.3953 14.9629 15.2982 15.1306 15.1306C15.2982 14.9629 15.3953 14.7375 15.4019 14.5005C15.4086 14.2635 15.3242 14.033 15.1662 13.8563ZM1.8525 6.48375C1.8525 5.56778 2.12412 4.67237 2.63301 3.91077C3.14189 3.14916 3.8652 2.55556 4.71145 2.20503C5.5577 1.8545 6.48889 1.76279 7.38726 1.94149C8.28564 2.12019 9.11085 2.56127 9.75854 3.20896C10.4062 3.85665 10.8473 4.68186 11.026 5.58024C11.2047 6.47861 11.113 7.4098 10.7625 8.25605C10.4119 9.1023 9.81834 9.82561 9.05674 10.3345C8.29513 10.8434 7.39972 11.115 6.48375 11.115C5.25592 11.1135 4.0788 10.6251 3.21059 9.75691C2.34238 8.8887 1.85397 7.71158 1.8525 6.48375Z" fill="#979797"/>
</svg>
